<svg t="1730360528306" class="icon" viewBox="0 0 1024 1024" version="1.1" xmlns="http://www.w3.org/2000/svg" p-id="7531" width="200" height="200"><path d="M65.37 65.343v895.335h895.335V65.343H65.37z m832.46 831.306H129.396V127.884H897.83v768.765z" fill="#707070" p-id="7532"></path><path d="M773.447 489.095h-63.281l-20.391-62.402H590.81l-20.039 62.402h-62.93l99.668-272.285h68.203l97.735 272.285z m-97.383-107.227l-30.938-94.395c-1.994-5.977-3.4-13.887-4.219-23.73h-1.582c-0.703 7.971-2.285 15.645-4.746 23.027l-31.113 95.098h72.598zM480.226 833.066V575.09h63.345v257.976zM608.665 833.067v-256.05h63.567v256.05zM736.65 833.387V575.09h63.386v258.297zM225.399 832.296V192.172h63.919v640.124zM353.575 832.296V190.245h63.58v642.051z" fill="#707070" p-id="7533"></path></svg>